<svg width="800" height="400" viewBox="0 0 800 400" xmlns="http://www.w3.org/2000/svg"><rect x="0" y="0" width="800" height="400" fill="#3f3f46"/><path fill="white" d="M325.2 168.5L320.7 168.5Q320.6 167.2 319.6 166.5Q318.7 165.8 317.0 165.8L317.0 165.8Q315.9 165.8 315.1 166.1Q314.3 166.4 313.9 167.0Q313.5 167.6 313.5 168.3L313.5 168.3Q313.5 168.8 313.7 169.3Q314.0 169.7 314.5 170.0Q315.0 170.3 315.6 170.6Q316.2 170.8 317.0 171.0L317.0 171.0L318.9 171.4Q320.3 171.8 321.5 172.3Q322.7 172.8 323.6 173.6Q324.5 174.4 325.0 175.4Q325.4 176.5 325.5 177.8L325.5 177.8Q325.4 179.9 324.4 181.3Q323.4 182.8 321.5 183.6Q319.6 184.4 317.0 184.4L317.0 184.4Q314.3 184.4 312.4 183.6Q310.4 182.8 309.3 181.2Q308.2 179.6 308.2 177.2L308.2 177.2L312.7 177.2Q312.7 178.3 313.3 179.1Q313.9 179.8 314.8 180.2Q315.7 180.5 316.9 180.5L316.9 180.5Q318.1 180.5 319.0 180.2Q319.8 179.8 320.3 179.2Q320.8 178.6 320.8 177.8L320.8 177.8Q320.8 177.1 320.4 176.6Q319.9 176.1 319.1 175.7Q318.3 175.4 317.1 175.1L317.1 175.1L314.7 174.5Q312.0 173.8 310.4 172.4Q308.8 171.0 308.8 168.6L308.8 168.6Q308.8 166.6 309.8 165.1Q310.9 163.6 312.8 162.8Q314.6 162.0 317.0 162.0L317.0 162.0Q319.5 162.0 321.3 162.8Q323.1 163.6 324.1 165.1Q325.1 166.6 325.2 168.5L325.2 168.5ZM333.1 184.4L333.1 184.4Q331.6 184.4 330.3 183.8Q329.1 183.3 328.4 182.2Q327.7 181.1 327.7 179.5L327.7 179.5Q327.7 178.1 328.2 177.2Q328.7 176.3 329.6 175.7Q330.4 175.2 331.5 174.9Q332.6 174.6 333.8 174.5L333.8 174.5Q335.3 174.3 336.1 174.2Q337.0 174.1 337.4 173.8Q337.8 173.5 337.8 173.0L337.8 173.0L337.8 172.9Q337.8 171.9 337.2 171.4Q336.5 170.8 335.4 170.8L335.4 170.8Q334.1 170.8 333.4 171.4Q332.7 171.9 332.5 172.7L332.5 172.7L328.3 172.4Q328.6 170.9 329.5 169.8Q330.5 168.7 331.9 168.1Q333.4 167.5 335.4 167.5L335.4 167.5Q336.8 167.5 338.0 167.8Q339.3 168.1 340.2 168.8Q341.2 169.5 341.8 170.5Q342.3 171.6 342.3 173.0L342.3 173.0L342.3 184.1L338.0 184.1L338.0 181.8L337.9 181.8Q337.5 182.6 336.9 183.2Q336.2 183.7 335.3 184.1Q334.3 184.4 333.1 184.4ZM334.4 181.3L334.4 181.3Q335.4 181.3 336.2 180.9Q337.0 180.5 337.4 179.8Q337.8 179.1 337.8 178.2L337.8 178.2L337.8 176.5Q337.6 176.6 337.3 176.7Q336.9 176.9 336.4 176.9Q336.0 177.0 335.5 177.1Q335.1 177.2 334.7 177.2L334.7 177.2Q333.9 177.3 333.3 177.6Q332.7 177.9 332.4 178.3Q332.0 178.7 332.0 179.4L332.0 179.4Q332.0 180.3 332.7 180.8Q333.4 181.3 334.4 181.3ZM350.4 184.1L345.9 184.1L345.9 167.7L350.4 167.7L350.4 184.1ZM348.1 165.6L348.1 165.6Q347.1 165.6 346.4 164.9Q345.7 164.3 345.7 163.3L345.7 163.3Q345.7 162.4 346.4 161.7Q347.1 161.0 348.1 161.0L348.1 161.0Q349.2 161.0 349.9 161.7Q350.6 162.4 350.6 163.3L350.6 163.3Q350.6 164.3 349.9 164.9Q349.2 165.6 348.1 165.6Z M365.7 184.1L361.1 184.1L361.1 162.3L369.7 162.3Q372.2 162.3 373.9 163.2Q375.7 164.1 376.6 165.8Q377.5 167.5 377.5 169.7L377.5 169.7Q377.5 171.8 376.6 173.5Q375.6 175.2 373.8 176.1Q372.1 177.0 369.6 177.0L369.6 177.0L364.1 177.0L364.1 173.3L368.8 173.3Q370.1 173.3 371.0 172.8Q371.9 172.4 372.3 171.6Q372.7 170.7 372.7 169.7L372.7 169.7Q372.7 168.6 372.3 167.8Q371.9 166.9 371.0 166.5Q370.1 166.0 368.8 166.0L368.8 166.0L365.7 166.0L365.7 184.1ZM385.0 184.1L380.4 184.1L380.4 167.7L384.8 167.7L384.8 170.6L385.0 170.6Q385.4 169.0 386.5 168.3Q387.5 167.5 388.9 167.5L388.9 167.5Q389.3 167.5 389.6 167.5Q390.0 167.6 390.3 167.6L390.3 167.6L390.3 171.7Q390.0 171.6 389.5 171.5Q388.9 171.4 388.4 171.4L388.4 171.4Q387.4 171.4 386.6 171.9Q385.9 172.3 385.4 173.1Q385.0 173.8 385.0 174.8L385.0 174.8L385.0 184.1ZM396.9 184.4L396.9 184.4Q395.3 184.4 394.1 183.8Q392.9 183.3 392.2 182.2Q391.4 181.1 391.4 179.5L391.4 179.5Q391.4 178.1 392.0 177.2Q392.5 176.3 393.3 175.7Q394.2 175.2 395.3 174.9Q396.4 174.6 397.6 174.5L397.6 174.5Q399.0 174.3 399.9 174.2Q400.8 174.1 401.2 173.8Q401.6 173.5 401.6 173.0L401.6 173.0L401.6 172.9Q401.6 171.9 400.9 171.4Q400.3 170.8 399.1 170.8L399.1 170.8Q397.9 170.8 397.2 171.4Q396.5 171.9 396.2 172.7L396.2 172.7L392.0 172.4Q392.3 170.9 393.3 169.8Q394.2 168.7 395.7 168.1Q397.2 167.5 399.2 167.5L399.2 167.5Q400.5 167.5 401.8 167.8Q403.0 168.1 404.0 168.8Q405.0 169.5 405.5 170.5Q406.1 171.6 406.1 173.0L406.1 173.0L406.1 184.1L401.8 184.1L401.8 181.8L401.7 181.8Q401.3 182.6 400.6 183.2Q400.0 183.7 399.0 184.1Q398.1 184.4 396.9 184.4ZM398.2 181.3L398.2 181.3Q399.2 181.3 400.0 180.9Q400.7 180.5 401.2 179.8Q401.6 179.1 401.6 178.2L401.6 178.2L401.6 176.5Q401.4 176.6 401.0 176.7Q400.6 176.9 400.2 176.9Q399.7 177.0 399.3 177.1Q398.8 177.2 398.4 177.2L398.4 177.2Q397.6 177.3 397.0 177.6Q396.4 177.9 396.1 178.3Q395.8 178.7 395.8 179.4L395.8 179.4Q395.8 180.3 396.5 180.8Q397.1 181.3 398.2 181.3ZM414.2 174.6L414.2 174.6L414.2 184.1L409.6 184.1L409.6 167.7L413.9 167.7L413.9 170.6L414.1 170.6Q414.7 169.2 416.0 168.3Q417.2 167.5 419.1 167.5L419.1 167.5Q420.8 167.5 422.0 168.2Q423.3 169.0 424.0 170.4Q424.7 171.8 424.7 173.7L424.7 173.7L424.7 184.1L420.2 184.1L420.2 174.5Q420.2 173.0 419.4 172.1Q418.6 171.3 417.3 171.3L417.3 171.3Q416.3 171.3 415.6 171.7Q415.0 172.1 414.6 172.8Q414.2 173.6 414.2 174.6ZM435.7 184.4L435.7 184.4Q433.2 184.4 431.4 183.4Q429.6 182.3 428.6 180.5Q427.6 178.6 427.6 176.0L427.6 176.0Q427.6 173.4 428.6 171.5Q429.6 169.6 431.4 168.6Q433.1 167.5 435.6 167.5L435.6 167.5Q437.2 167.5 438.6 168.0Q440.0 168.5 441.0 169.6Q442.1 170.6 442.7 172.2Q443.2 173.7 443.2 175.8L443.2 175.8L443.2 177.1L429.4 177.1L429.4 174.2L439.0 174.2Q439.0 173.3 438.5 172.5Q438.1 171.8 437.4 171.3Q436.6 170.9 435.6 170.9L435.6 170.9Q434.6 170.9 433.8 171.4Q433.0 171.8 432.6 172.6Q432.1 173.4 432.1 174.4L432.1 174.4L432.1 177.1Q432.1 178.3 432.6 179.2Q433.0 180.1 433.8 180.5Q434.7 181.0 435.8 181.0L435.8 181.0Q436.6 181.0 437.2 180.8Q437.8 180.6 438.3 180.2Q438.7 179.7 439.0 179.1L439.0 179.1L443.2 179.4Q442.8 180.9 441.8 182.0Q440.9 183.2 439.3 183.8Q437.8 184.4 435.7 184.4ZM453.7 184.4L453.7 184.4Q451.1 184.4 449.3 183.4Q447.5 182.3 446.5 180.5Q445.5 178.6 445.5 176.0L445.5 176.0Q445.5 173.4 446.5 171.5Q447.5 169.6 449.3 168.6Q451.1 167.5 453.5 167.5L453.5 167.5Q455.1 167.5 456.5 168.0Q457.9 168.5 459.0 169.6Q460.0 170.6 460.6 172.2Q461.2 173.7 461.2 175.8L461.2 175.8L461.2 177.1L447.4 177.1L447.4 174.2L456.9 174.2Q456.9 173.3 456.5 172.5Q456.1 171.8 455.3 171.3Q454.5 170.9 453.6 170.9L453.6 170.9Q452.5 170.9 451.7 171.4Q450.9 171.8 450.5 172.6Q450.0 173.4 450.0 174.4L450.0 174.4L450.0 177.1Q450.0 178.3 450.5 179.2Q450.9 180.1 451.8 180.5Q452.6 181.0 453.7 181.0L453.7 181.0Q454.5 181.0 455.1 180.8Q455.8 180.6 456.2 180.2Q456.6 179.7 456.9 179.1L456.9 179.1L461.1 179.4Q460.8 180.9 459.8 182.0Q458.8 183.2 457.2 183.8Q455.7 184.4 453.7 184.4ZM463.0 167.7L472.8 167.7L472.8 171.1L463.0 171.1L463.0 167.7ZM465.2 179.6L465.2 163.8L469.8 163.8L469.8 179.1Q469.8 179.7 470.0 180.0Q470.1 180.4 470.5 180.5Q470.8 180.6 471.3 180.6L471.3 180.6Q471.6 180.6 471.9 180.6Q472.3 180.5 472.4 180.5L472.4 180.5L473.1 183.9Q472.8 184.0 472.2 184.1Q471.6 184.3 470.7 184.3L470.7 184.3Q469.0 184.4 467.8 183.9Q466.6 183.4 465.9 182.3Q465.2 181.3 465.2 179.6L465.2 179.6ZM480.7 174.6L480.7 174.6L480.7 184.1L476.1 184.1L476.1 162.3L480.5 162.3L480.5 170.6L480.7 170.6Q481.3 169.2 482.5 168.3Q483.8 167.5 485.6 167.5L485.6 167.5Q487.3 167.5 488.6 168.2Q489.9 169.0 490.6 170.4Q491.3 171.7 491.3 173.7L491.3 173.7L491.3 184.1L486.7 184.1L486.7 174.5Q486.8 173.0 486.0 172.1Q485.2 171.3 483.8 171.3L483.8 171.3Q482.9 171.3 482.2 171.7Q481.5 172.1 481.1 172.8Q480.7 173.6 480.7 174.6Z "/><path fill="white" d="M151.8 226.0L150.4 226.0Q150.2 225.4 149.9 224.9Q149.6 224.5 149.2 224.2Q148.7 223.8 148.2 223.7Q147.7 223.5 147.0 223.5L147.0 223.5Q146.0 223.5 145.2 224.0Q144.3 224.6 143.8 225.6Q143.3 226.6 143.3 228.2L143.3 228.2Q143.3 229.7 143.8 230.7Q144.3 231.7 145.2 232.3Q146.1 232.8 147.1 232.8L147.1 232.8Q148.1 232.8 148.9 232.4Q149.7 232.0 150.1 231.2Q150.5 230.4 150.5 229.3L150.5 229.3L151.0 229.4L147.5 229.4L147.5 228.2L151.9 228.2L151.9 229.4Q151.9 230.8 151.3 231.9Q150.7 233.0 149.6 233.6Q148.5 234.1 147.1 234.1L147.1 234.1Q145.6 234.1 144.4 233.4Q143.3 232.7 142.6 231.3Q142.0 230.0 142.0 228.2L142.0 228.2Q142.0 226.8 142.3 225.7Q142.7 224.6 143.4 223.8Q144.1 223.0 145.0 222.6Q145.9 222.2 147.0 222.2L147.0 222.2Q148.0 222.2 148.8 222.5Q149.6 222.7 150.2 223.2Q150.8 223.7 151.2 224.4Q151.7 225.1 151.8 226.0L151.8 226.0ZM157.8 234.2L157.8 234.2Q156.5 234.2 155.6 233.6Q154.7 233.0 154.2 232.0Q153.7 231.0 153.7 229.7L153.7 229.7Q153.7 228.3 154.2 227.3Q154.7 226.3 155.6 225.7Q156.5 225.1 157.6 225.1L157.6 225.1Q158.3 225.1 159.0 225.4Q159.6 225.6 160.2 226.1Q160.7 226.6 161.1 227.4Q161.4 228.3 161.4 229.5L161.4 229.5L161.4 230.1L154.7 230.1L154.7 228.9L160.0 228.9Q160.0 228.2 159.7 227.6Q159.4 227.0 158.9 226.7Q158.4 226.3 157.6 226.3L157.6 226.3Q156.8 226.3 156.3 226.7Q155.7 227.1 155.4 227.8Q155.0 228.4 155.0 229.1L155.0 229.1L155.0 229.9Q155.0 230.9 155.4 231.6Q155.7 232.2 156.3 232.6Q157.0 233.0 157.8 233.0L157.8 233.0Q158.3 233.0 158.7 232.8Q159.2 232.7 159.5 232.3Q159.8 232.0 160.0 231.6L160.0 231.6L161.3 232.0Q161.0 232.6 160.6 233.1Q160.1 233.6 159.4 233.9Q158.7 234.2 157.8 234.2ZM166.0 234.2L166.0 234.2Q165.2 234.2 164.5 233.9Q163.8 233.5 163.4 233.0Q163.0 232.4 163.0 231.5L163.0 231.5Q163.0 230.7 163.3 230.3Q163.6 229.8 164.1 229.5Q164.6 229.3 165.2 229.1Q165.8 229.0 166.4 228.9L166.4 228.9Q167.2 228.8 167.7 228.8Q168.2 228.7 168.4 228.6Q168.7 228.5 168.7 228.1L168.7 228.1L168.7 228.1Q168.7 227.2 168.2 226.8Q167.7 226.3 166.8 226.3L166.8 226.3Q165.9 226.3 165.3 226.7Q164.8 227.2 164.5 227.6L164.5 227.6L163.3 227.2Q163.6 226.4 164.2 225.9Q164.8 225.5 165.4 225.3Q166.1 225.1 166.8 225.1L166.8 225.1Q167.2 225.1 167.7 225.2Q168.3 225.3 168.8 225.6Q169.3 225.9 169.7 226.6Q170.0 227.2 170.0 228.2L170.0 228.2L170.0 234.0L168.7 234.0L168.7 232.8L168.6 232.8Q168.5 233.1 168.1 233.4Q167.8 233.7 167.3 234.0Q166.8 234.2 166.0 234.2ZM166.2 233.0L166.2 233.0Q167.0 233.0 167.5 232.7Q168.1 232.4 168.4 231.9Q168.7 231.4 168.7 230.8L168.7 230.8L168.7 229.6Q168.6 229.7 168.3 229.8Q168.0 229.9 167.6 229.9Q167.3 230.0 166.9 230.0Q166.6 230.1 166.3 230.1L166.3 230.1Q165.8 230.2 165.4 230.3Q164.9 230.5 164.6 230.8Q164.4 231.1 164.4 231.6L164.4 231.6Q164.4 232.3 164.9 232.6Q165.4 233.0 166.2 233.0ZM173.8 234.0L172.5 234.0L172.5 225.2L173.8 225.2L173.8 226.6L173.8 226.6Q174.1 225.9 174.7 225.5Q175.3 225.1 176.1 225.1L176.1 225.1Q176.3 225.1 176.5 225.1Q176.7 225.1 176.8 225.1L176.8 225.1L176.8 226.5Q176.8 226.5 176.5 226.4Q176.3 226.4 176 226.4L176 226.4Q175.4 226.4 174.9 226.7Q174.4 226.9 174.1 227.4Q173.8 227.9 173.8 228.5L173.8 228.5L173.8 234.0Z M184.5 234.0L183.1 234.0L183.1 222.3L184.5 222.3L184.5 227.5L190.7 227.5L190.7 222.3L192.1 222.3L192.1 234.0L190.7 234.0L190.7 228.8L184.5 228.8L184.5 234.0ZM198.4 234.2L198.4 234.2Q197.1 234.2 196.2 233.6Q195.3 233.0 194.8 232.0Q194.3 231.0 194.3 229.7L194.3 229.7Q194.3 228.3 194.8 227.3Q195.3 226.3 196.2 225.7Q197.1 225.1 198.3 225.1L198.3 225.1Q199.0 225.1 199.6 225.4Q200.3 225.6 200.8 226.1Q201.4 226.6 201.7 227.4Q202.0 228.3 202.0 229.5L202.0 229.5L202.0 230.1L195.3 230.1L195.3 228.9L200.7 228.9Q200.7 228.2 200.4 227.6Q200.1 227.0 199.5 226.7Q199 226.3 198.3 226.3L198.3 226.3Q197.5 226.3 196.9 226.7Q196.3 227.1 196.0 227.8Q195.7 228.4 195.7 229.1L195.7 229.1L195.7 229.9Q195.7 230.9 196.0 231.6Q196.4 232.2 197.0 232.6Q197.6 233.0 198.4 233.0L198.4 233.0Q198.9 233.0 199.4 232.8Q199.8 232.7 200.1 232.3Q200.4 232.0 200.6 231.6L200.6 231.6L201.9 232.0Q201.7 232.6 201.2 233.1Q200.7 233.6 200.0 233.9Q199.3 234.2 198.4 234.2ZM206.6 234.2L206.6 234.2Q205.8 234.2 205.1 233.9Q204.5 233.5 204.1 233.0Q203.7 232.4 203.7 231.5L203.7 231.5Q203.7 230.7 204.0 230.3Q204.3 229.8 204.7 229.5Q205.2 229.3 205.8 229.1Q206.4 229.0 207.0 228.9L207.0 228.9Q207.8 228.8 208.3 228.8Q208.8 228.7 209.1 228.6Q209.3 228.5 209.3 228.1L209.3 228.1L209.3 228.1Q209.3 227.2 208.8 226.8Q208.4 226.3 207.5 226.3L207.5 226.3Q206.5 226.3 205.9 226.7Q205.4 227.2 205.2 227.6L205.2 227.6L203.9 227.2Q204.3 226.4 204.8 225.9Q205.4 225.5 206.1 225.3Q206.8 225.1 207.4 225.1L207.4 225.1Q207.8 225.1 208.4 225.2Q208.9 225.3 209.4 225.6Q210.0 225.9 210.3 226.6Q210.6 227.2 210.6 228.2L210.6 228.2L210.6 234.0L209.3 234.0L209.3 232.8L209.2 232.8Q209.1 233.1 208.8 233.4Q208.5 233.7 207.9 234.0Q207.4 234.2 206.6 234.2ZM206.8 233.0L206.8 233.0Q207.6 233.0 208.2 232.7Q208.7 232.4 209.0 231.9Q209.3 231.4 209.3 230.8L209.3 230.8L209.3 229.6Q209.2 229.7 208.9 229.8Q208.6 229.9 208.3 229.9Q207.9 230.0 207.5 230.0Q207.2 230.1 207.0 230.1L207.0 230.1Q206.5 230.2 206.0 230.3Q205.6 230.5 205.3 230.8Q205 231.1 205 231.6L205 231.6Q205 232.3 205.5 232.6Q206.0 233.0 206.8 233.0ZM216.4 234.2L216.4 234.2Q215.3 234.2 214.5 233.6Q213.6 233.0 213.2 232.0Q212.7 231.0 212.7 229.6L212.7 229.6Q212.7 228.3 213.2 227.2Q213.6 226.2 214.5 225.7Q215.3 225.1 216.4 225.1L216.4 225.1Q217.3 225.1 217.8 225.4Q218.3 225.7 218.5 226.1Q218.8 226.4 218.9 226.6L218.9 226.6L219.0 226.6L219.0 222.3L220.4 222.3L220.4 234.0L219.1 234.0L219.1 232.6L218.9 232.6Q218.8 232.9 218.5 233.2Q218.2 233.6 217.7 233.9Q217.2 234.2 216.4 234.2ZM216.6 233.0L216.6 233.0Q217.4 233.0 217.9 232.5Q218.5 232.1 218.8 231.4Q219.1 230.6 219.1 229.6L219.1 229.6Q219.1 228.6 218.8 227.9Q218.5 227.2 217.9 226.8Q217.4 226.3 216.6 226.3L216.6 226.3Q215.7 226.3 215.2 226.8Q214.6 227.2 214.3 228.0Q214.0 228.7 214.0 229.6L214.0 229.6Q214.0 230.5 214.3 231.3Q214.6 232.1 215.2 232.5Q215.7 233.0 216.6 233.0Z M228.3 218.6L229.5 218.6L229.5 237.7L228.3 237.7L228.3 218.6Z M246.8 226.0L246.8 226.0L245.4 226.0Q245.3 225.4 245.0 224.9Q244.6 224.4 244.2 224.1Q243.8 223.8 243.2 223.7Q242.7 223.5 242.1 223.5L242.1 223.5Q241.1 223.5 240.2 224.0Q239.3 224.6 238.8 225.6Q238.3 226.6 238.3 228.2L238.3 228.2Q238.3 229.7 238.8 230.7Q239.3 231.7 240.2 232.3Q241.1 232.8 242.1 232.8L242.1 232.8Q242.7 232.8 243.2 232.7Q243.8 232.5 244.2 232.2Q244.6 231.9 245.0 231.4Q245.3 230.9 245.4 230.3L245.4 230.3L246.8 230.3Q246.6 231.2 246.2 231.9Q245.8 232.6 245.2 233.1Q244.5 233.6 243.8 233.9Q243.0 234.1 242.1 234.1L242.1 234.1Q240.6 234.1 239.5 233.4Q238.3 232.7 237.6 231.3Q237.0 230.0 237.0 228.2L237.0 228.2Q237.0 226.3 237.6 225.0Q238.3 223.6 239.5 222.9Q240.6 222.2 242.1 222.2L242.1 222.2Q243.0 222.2 243.8 222.4Q244.5 222.7 245.2 223.2Q245.8 223.7 246.2 224.4Q246.6 225.1 246.8 226.0ZM252.4 234.2L252.4 234.2Q251.3 234.2 250.4 233.6Q249.5 233.0 249.0 232.0Q248.5 231.0 248.5 229.7L248.5 229.7Q248.5 228.3 249.0 227.3Q249.5 226.3 250.4 225.7Q251.3 225.1 252.4 225.1L252.4 225.1Q253.6 225.1 254.5 225.7Q255.4 226.3 255.9 227.3Q256.4 228.3 256.4 229.7L256.4 229.7Q256.4 231.0 255.9 232.0Q255.4 233.0 254.5 233.6Q253.6 234.2 252.4 234.2ZM252.4 233.0L252.4 233.0Q253.3 233.0 253.9 232.5Q254.5 232.0 254.8 231.3Q255.0 230.5 255.0 229.7L255.0 229.7Q255.0 228.8 254.8 228.0Q254.5 227.3 253.9 226.8Q253.3 226.3 252.4 226.3L252.4 226.3Q251.5 226.3 251.0 226.8Q250.4 227.3 250.1 228.0Q249.8 228.8 249.8 229.7L249.8 229.7Q249.8 230.5 250.1 231.3Q250.4 232.0 251.0 232.5Q251.5 233.0 252.4 233.0ZM259.8 234.0L258.4 234.0L258.4 225.2L259.7 225.2L259.7 226.6L259.8 226.6Q260.1 225.9 260.7 225.5Q261.3 225.1 262.2 225.1L262.2 225.1Q263.0 225.1 263.6 225.5Q264.2 225.9 264.5 226.6L264.5 226.6L264.6 226.6Q264.9 225.9 265.6 225.5Q266.3 225.1 267.2 225.1L267.2 225.1Q268.4 225.1 269.1 225.9Q269.9 226.6 269.9 228.1L269.9 228.1L269.9 234.0L268.5 234.0L268.5 228.1Q268.5 227.2 268.0 226.8Q267.5 226.3 266.8 226.3L266.8 226.3Q265.9 226.3 265.3 226.9Q264.8 227.4 264.8 228.3L264.8 228.3L264.8 234.0L263.5 234.0L263.5 228.0Q263.5 227.3 263.0 226.8Q262.5 226.3 261.8 226.3L261.8 226.3Q261.2 226.3 260.8 226.6Q260.3 226.9 260.0 227.4Q259.8 227.9 259.8 228.5L259.8 228.5L259.8 234.0ZM273.7 237.2L272.3 237.2L272.3 225.2L273.6 225.2L273.6 226.6L273.8 226.6Q273.9 226.4 274.2 226.1Q274.5 225.7 275.0 225.4Q275.5 225.1 276.3 225.1L276.3 225.1Q277.4 225.1 278.3 225.7Q279.1 226.2 279.6 227.2Q280.0 228.3 280.0 229.6L280.0 229.6Q280.0 231.0 279.6 232.0Q279.1 233.0 278.3 233.6Q277.4 234.2 276.3 234.2L276.3 234.2Q275.5 234.2 275.0 233.9Q274.5 233.6 274.2 233.2Q273.9 232.9 273.8 232.6L273.8 232.6L273.7 232.6L273.7 237.2ZM273.7 229.6L273.7 229.6Q273.7 230.6 273.9 231.4Q274.2 232.1 274.8 232.5Q275.4 233.0 276.2 233.0L276.2 233.0Q277.0 233.0 277.6 232.5Q278.1 232.1 278.4 231.3Q278.7 230.5 278.7 229.6L278.7 229.6Q278.7 228.7 278.4 228.0Q278.1 227.2 277.6 226.8Q277.0 226.3 276.2 226.3L276.2 226.3Q275.3 226.3 274.8 226.8Q274.2 227.2 273.9 227.9Q273.7 228.6 273.7 229.6ZM287.6 230.4L287.6 230.4L287.6 225.2L288.9 225.2L288.9 234.0L287.6 234.0L287.6 232.5L287.5 232.5Q287.2 233.2 286.5 233.6Q285.9 234.1 284.9 234.1L284.9 234.1Q284.1 234.1 283.5 233.7Q282.8 233.4 282.5 232.6Q282.1 231.9 282.1 230.8L282.1 230.8L282.1 225.2L283.4 225.2L283.4 230.7Q283.4 231.7 284.0 232.2Q284.5 232.8 285.3 232.8L285.3 232.8Q285.8 232.8 286.4 232.5Q286.9 232.3 287.2 231.8Q287.6 231.2 287.6 230.4ZM290.7 225.2L295.2 225.2L295.2 226.4L290.7 226.4L290.7 225.2ZM292.0 231.8L292.0 223.2L293.3 223.2L293.3 231.5Q293.3 232.0 293.5 232.3Q293.7 232.6 293.9 232.7Q294.2 232.8 294.5 232.8L294.5 232.8Q294.7 232.8 294.8 232.8Q295.0 232.7 295.1 232.7L295.1 232.7L295.3 233.9Q295.2 234.0 295.0 234.0Q294.7 234.1 294.3 234.1L294.3 234.1Q293.8 234.1 293.2 233.8Q292.7 233.6 292.3 233.1Q292.0 232.6 292.0 231.8L292.0 231.8ZM300.8 234.2L300.8 234.2Q299.5 234.2 298.6 233.6Q297.7 233.0 297.2 232.0Q296.7 231.0 296.7 229.7L296.7 229.7Q296.7 228.3 297.2 227.3Q297.7 226.3 298.6 225.7Q299.5 225.1 300.6 225.1L300.6 225.1Q301.3 225.1 302.0 225.4Q302.6 225.6 303.2 226.1Q303.7 226.6 304.1 227.4Q304.4 228.3 304.4 229.5L304.4 229.5L304.4 230.1L297.7 230.1L297.7 228.9L303.0 228.9Q303.0 228.2 302.7 227.6Q302.4 227.0 301.9 226.7Q301.4 226.3 300.6 226.3L300.6 226.3Q299.8 226.3 299.3 226.7Q298.7 227.1 298.4 227.8Q298.0 228.4 298.0 229.1L298.0 229.1L298.0 229.9Q298.0 230.9 298.4 231.6Q298.7 232.2 299.3 232.6Q300.0 233.0 300.8 233.0L300.8 233.0Q301.3 233.0 301.7 232.8Q302.2 232.7 302.5 232.3Q302.8 232.0 303.0 231.6L303.0 231.6L304.3 232.0Q304.0 232.6 303.6 233.1Q303.1 233.6 302.4 233.9Q301.7 234.2 300.8 234.2ZM307.8 234.0L306.4 234.0L306.4 225.2L307.7 225.2L307.7 226.6L307.8 226.6Q308.1 225.9 308.7 225.5Q309.3 225.1 310.1 225.1L310.1 225.1Q310.2 225.1 310.5 225.1Q310.7 225.1 310.8 225.1L310.8 225.1L310.8 226.5Q310.7 226.5 310.5 226.4Q310.2 226.4 310.0 226.4L310.0 226.4Q309.3 226.4 308.8 226.7Q308.3 226.9 308.1 227.4Q307.8 227.9 307.8 228.5L307.8 228.5L307.8 234.0Z M318.5 234.0L317.1 234.0L317.1 222.3L321 222.3Q322.4 222.3 323.2 222.8Q324.1 223.3 324.5 224.2Q325.0 225.0 325.0 226.0L325.0 226.0Q325.0 227.0 324.5 227.9Q324.1 228.7 323.3 229.2Q322.4 229.7 321.0 229.7L321.0 229.7L318.2 229.7L318.2 228.5L321.0 228.5Q321.9 228.5 322.5 228.2Q323.1 227.8 323.3 227.3Q323.6 226.7 323.6 226.0L323.6 226.0Q323.6 225.3 323.3 224.8Q323.1 224.2 322.5 223.9Q321.9 223.6 321.0 223.6L321.0 223.6L318.5 223.6L318.5 234.0ZM328.4 234.0L327.0 234.0L327.0 225.2L328.3 225.2L328.3 226.6L328.4 226.6Q328.7 225.9 329.3 225.5Q329.9 225.1 330.7 225.1L330.7 225.1Q330.9 225.1 331.1 225.1Q331.3 225.1 331.4 225.1L331.4 225.1L331.4 226.5Q331.3 226.5 331.1 226.4Q330.9 226.4 330.6 226.4L330.6 226.4Q330.0 226.4 329.5 226.7Q329.0 226.9 328.7 227.4Q328.4 227.9 328.4 228.5L328.4 228.5L328.4 234.0ZM336.3 234.2L336.3 234.2Q335.1 234.2 334.2 233.6Q333.3 233.0 332.8 232.0Q332.3 231.0 332.3 229.7L332.3 229.7Q332.3 228.3 332.8 227.3Q333.3 226.3 334.2 225.7Q335.1 225.1 336.3 225.1L336.3 225.1Q337.5 225.1 338.3 225.7Q339.2 226.3 339.7 227.3Q340.2 228.3 340.2 229.7L340.2 229.7Q340.2 231.0 339.7 232.0Q339.2 233.0 338.3 233.6Q337.5 234.2 336.3 234.2ZM336.3 233.0L336.3 233.0Q337.2 233.0 337.8 232.5Q338.3 232.0 338.6 231.3Q338.9 230.5 338.9 229.7L338.9 229.7Q338.9 228.8 338.6 228.0Q338.3 227.3 337.8 226.8Q337.2 226.3 336.3 226.3L336.3 226.3Q335.4 226.3 334.8 226.8Q334.2 227.3 333.9 228.0Q333.7 228.8 333.7 229.7L333.7 229.7Q333.7 230.5 333.9 231.3Q334.2 232.0 334.8 232.5Q335.4 233.0 336.3 233.0ZM345.8 237.4L345.8 237.4Q344.8 237.4 344.1 237.2Q343.4 236.9 343.0 236.5Q342.5 236.1 342.2 235.7L342.2 235.7L343.3 234.9Q343.5 235.2 343.8 235.5Q344.0 235.8 344.5 236.0Q345.0 236.2 345.8 236.2L345.8 236.2Q346.9 236.2 347.5 235.7Q348.2 235.2 348.2 234.1L348.2 234.1L348.2 232.4L348.1 232.4Q348.0 232.6 347.7 233.0Q347.4 233.3 346.9 233.6Q346.4 233.8 345.6 233.8L345.6 233.8Q344.5 233.8 343.7 233.3Q342.8 232.8 342.3 231.9Q341.9 230.9 341.9 229.6L341.9 229.6Q341.9 228.2 342.3 227.2Q342.8 226.2 343.6 225.7Q344.5 225.1 345.6 225.1L345.6 225.1Q346.4 225.1 346.9 225.4Q347.4 225.7 347.7 226.1Q348.0 226.4 348.1 226.6L348.1 226.6L348.3 226.6L348.3 225.2L349.6 225.2L349.6 234.2Q349.6 235.4 349.1 236.1Q348.6 236.8 347.7 237.1Q346.8 237.4 345.8 237.4ZM345.8 232.6L345.8 232.6Q346.6 232.6 347.1 232.3Q347.7 231.9 348.0 231.2Q348.3 230.5 348.3 229.5L348.3 229.5Q348.3 228.6 348.0 227.9Q347.7 227.2 347.1 226.7Q346.6 226.3 345.8 226.3L345.8 226.3Q344.9 226.3 344.3 226.8Q343.8 227.2 343.5 227.9Q343.2 228.7 343.2 229.5L343.2 229.5Q343.2 230.5 343.5 231.1Q343.8 231.8 344.3 232.2Q344.9 232.6 345.8 232.6ZM353.4 234.0L352.0 234.0L352.0 225.2L353.3 225.2L353.3 226.6L353.4 226.6Q353.6 225.9 354.3 225.5Q354.9 225.1 355.7 225.1L355.7 225.1Q355.8 225.1 356.1 225.1Q356.3 225.1 356.4 225.1L356.4 225.1L356.4 226.5Q356.3 226.5 356.1 226.4Q355.8 226.4 355.6 226.4L355.6 226.4Q354.9 226.4 354.4 226.7Q353.9 226.9 353.7 227.4Q353.4 227.9 353.4 228.5L353.4 228.5L353.4 234.0ZM360.5 234.2L360.5 234.2Q359.7 234.2 359.0 233.9Q358.4 233.5 358.0 233.0Q357.6 232.4 357.6 231.5L357.6 231.5Q357.6 230.7 357.9 230.3Q358.2 229.8 358.7 229.5Q359.1 229.3 359.7 229.1Q360.3 229.0 361.0 228.9L361.0 228.9Q361.8 228.8 362.2 228.8Q362.7 228.7 363.0 228.6Q363.2 228.5 363.2 228.1L363.2 228.1L363.2 228.1Q363.2 227.2 362.7 226.8Q362.3 226.3 361.4 226.3L361.4 226.3Q360.4 226.3 359.9 226.7Q359.3 227.2 359.1 227.6L359.1 227.6L357.8 227.2Q358.2 226.4 358.7 225.9Q359.3 225.5 360.0 225.3Q360.7 225.1 361.3 225.1L361.3 225.1Q361.7 225.1 362.3 225.2Q362.8 225.3 363.3 225.6Q363.9 225.9 364.2 226.6Q364.5 227.2 364.5 228.2L364.5 228.2L364.5 234.0L363.2 234.0L363.2 232.8L363.1 232.8Q363.0 233.1 362.7 233.4Q362.4 233.7 361.8 234.0Q361.3 234.2 360.5 234.2ZM360.8 233.0L360.8 233.0Q361.5 233.0 362.1 232.7Q362.6 232.4 362.9 231.9Q363.2 231.4 363.2 230.8L363.2 230.8L363.2 229.6Q363.1 229.7 362.8 229.8Q362.5 229.9 362.2 229.9Q361.8 230.0 361.5 230.0Q361.1 230.1 360.9 230.1L360.9 230.1Q360.4 230.2 359.9 230.3Q359.5 230.5 359.2 230.8Q358.9 231.1 358.9 231.6L358.9 231.6Q358.9 232.3 359.4 232.6Q359.9 233.0 360.8 233.0ZM368.3 234.0L367.0 234.0L367.0 225.2L368.3 225.2L368.3 226.6L368.4 226.6Q368.7 225.9 369.3 225.5Q369.9 225.1 370.8 225.1L370.8 225.1Q371.6 225.1 372.2 225.5Q372.8 225.9 373.1 226.6L373.1 226.6L373.2 226.6Q373.5 225.9 374.2 225.5Q374.9 225.1 375.8 225.1L375.8 225.1Q377.0 225.1 377.7 225.9Q378.5 226.6 378.5 228.1L378.5 228.1L378.5 234.0L377.1 234.0L377.1 228.1Q377.1 227.2 376.6 226.8Q376.1 226.3 375.3 226.3L375.3 226.3Q374.4 226.3 373.9 226.9Q373.4 227.4 373.4 228.3L373.4 228.3L373.4 234.0L372.0 234.0L372.0 228.0Q372.0 227.3 371.6 226.8Q371.1 226.3 370.3 226.3L370.3 226.3Q369.8 226.3 369.3 226.6Q368.9 226.9 368.6 227.4Q368.3 227.9 368.3 228.5L368.3 228.5L368.3 234.0ZM382.3 234.0L380.9 234.0L380.9 225.2L382.2 225.2L382.2 226.6L382.3 226.6Q382.6 225.9 383.2 225.5Q383.8 225.1 384.7 225.1L384.7 225.1Q385.5 225.1 386.1 225.5Q386.7 225.9 387.0 226.6L387.0 226.6L387.1 226.6Q387.4 225.9 388.1 225.5Q388.8 225.1 389.7 225.1L389.7 225.1Q390.9 225.1 391.6 225.9Q392.4 226.6 392.4 228.1L392.4 228.1L392.4 234.0L391.0 234.0L391.0 228.1Q391.0 227.2 390.5 226.8Q390.0 226.3 389.3 226.3L389.3 226.3Q388.3 226.3 387.8 226.9Q387.3 227.4 387.3 228.3L387.3 228.3L387.3 234.0L386.0 234.0L386.0 228.0Q386.0 227.3 385.5 226.8Q385.0 226.3 384.2 226.3L384.2 226.3Q383.7 226.3 383.3 226.6Q382.8 226.9 382.5 227.4Q382.3 227.9 382.3 228.5L382.3 228.5L382.3 234.0ZM398.5 234.2L398.5 234.2Q397.2 234.2 396.3 233.6Q395.4 233.0 394.9 232.0Q394.4 231.0 394.4 229.7L394.4 229.7Q394.4 228.3 394.9 227.3Q395.4 226.3 396.3 225.7Q397.2 225.1 398.3 225.1L398.3 225.1Q399.0 225.1 399.7 225.4Q400.4 225.6 400.9 226.1Q401.4 226.6 401.8 227.4Q402.1 228.3 402.1 229.5L402.1 229.5L402.1 230.1L395.4 230.1L395.4 228.9L400.7 228.9Q400.7 228.2 400.4 227.6Q400.1 227.0 399.6 226.7Q399.1 226.3 398.3 226.3L398.3 226.3Q397.5 226.3 397.0 226.7Q396.4 227.1 396.1 227.8Q395.8 228.4 395.8 229.1L395.8 229.1L395.8 229.9Q395.8 230.9 396.1 231.6Q396.4 232.2 397.1 232.6Q397.7 233.0 398.5 233.0L398.5 233.0Q399.0 233.0 399.4 232.8Q399.9 232.7 400.2 232.3Q400.5 232.0 400.7 231.6L400.7 231.6L402.0 232.0Q401.8 232.6 401.3 233.1Q400.8 233.6 400.1 233.9Q399.4 234.2 398.5 234.2ZM405.5 234.0L404.1 234.0L404.1 225.2L405.4 225.2L405.4 226.6L405.5 226.6Q405.8 225.9 406.4 225.5Q407.0 225.1 407.8 225.1L407.8 225.1Q407.9 225.1 408.2 225.1Q408.4 225.1 408.5 225.1L408.5 225.1L408.5 226.5Q408.4 226.5 408.2 226.4Q407.9 226.4 407.7 226.4L407.7 226.4Q407.0 226.4 406.5 226.7Q406.1 226.9 405.8 227.4Q405.5 227.9 405.5 228.5L405.5 228.5L405.5 234.0Z M415.4 218.6L416.5 218.6L416.5 237.7L415.4 237.7L415.4 218.6Z M428.1 234.0L426.6 234.0L423.4 222.3L424.9 222.3L427.3 231.8L427.4 231.8L429.9 222.3L431.5 222.3L434.0 231.8L434.1 231.8L436.5 222.3L437.9 222.3L434.8 234.0L433.3 234.0L430.7 224.7L430.6 224.7L428.1 234.0ZM440.3 234.0L439.0 234.0L439.0 225.2L440.3 225.2L440.3 226.6L440.3 226.6Q440.6 225.9 441.2 225.5Q441.8 225.1 442.6 225.1L442.6 225.1Q442.8 225.1 443.0 225.1Q443.2 225.1 443.3 225.1L443.3 225.1L443.3 226.5Q443.3 226.5 443.0 226.4Q442.8 226.4 442.5 226.4L442.5 226.4Q441.9 226.4 441.4 226.7Q440.9 226.9 440.6 227.4Q440.3 227.9 440.3 228.5L440.3 228.5L440.3 234.0ZM446.3 234.0L444.9 234.0L444.9 225.2L446.3 225.2L446.3 234.0ZM445.6 223.8L445.6 223.8Q445.2 223.8 444.9 223.5Q444.6 223.3 444.6 222.9L444.6 222.9Q444.6 222.5 444.9 222.2Q445.2 222.0 445.6 222.0L445.6 222.0Q446.0 222.0 446.3 222.2Q446.5 222.5 446.5 222.9L446.5 222.9Q446.5 223.3 446.3 223.5Q446.0 223.8 445.6 223.8ZM448.0 225.2L452.5 225.2L452.5 226.4L448.0 226.4L448.0 225.2ZM449.3 231.8L449.3 223.2L450.6 223.2L450.6 231.5Q450.6 232.0 450.8 232.3Q451.0 232.6 451.2 232.7Q451.5 232.8 451.8 232.8L451.8 232.8Q452.0 232.8 452.2 232.8Q452.3 232.7 452.4 232.7L452.4 232.7L452.7 233.9Q452.5 234.0 452.3 234.0Q452.0 234.1 451.7 234.1L451.7 234.1Q451.1 234.1 450.5 233.8Q450.0 233.6 449.7 233.1Q449.3 232.6 449.3 231.8L449.3 231.8ZM458.1 234.2L458.1 234.2Q456.8 234.2 455.9 233.6Q455.0 233.0 454.5 232.0Q454.0 231.0 454.0 229.7L454.0 229.7Q454.0 228.3 454.5 227.3Q455.0 226.3 455.9 225.7Q456.8 225.1 458.0 225.1L458.0 225.1Q458.6 225.1 459.3 225.4Q460.0 225.6 460.5 226.1Q461.1 226.6 461.4 227.4Q461.7 228.3 461.7 229.5L461.7 229.5L461.7 230.1L455.0 230.1L455.0 228.9L460.3 228.9Q460.3 228.2 460.0 227.6Q459.8 227.0 459.2 226.7Q458.7 226.3 458.0 226.3L458.0 226.3Q457.2 226.3 456.6 226.7Q456.0 227.1 455.7 227.8Q455.4 228.4 455.4 229.1L455.4 229.1L455.4 229.9Q455.4 230.9 455.7 231.6Q456.1 232.2 456.7 232.6Q457.3 233.0 458.1 233.0L458.1 233.0Q458.6 233.0 459.0 232.8Q459.5 232.7 459.8 232.3Q460.1 232.0 460.3 231.6L460.3 231.6L461.6 232.0Q461.4 232.6 460.9 233.1Q460.4 233.6 459.7 233.9Q459.0 234.2 458.1 234.2ZM465.1 234.0L463.8 234.0L463.8 225.2L465.0 225.2L465.0 226.6L465.1 226.6Q465.4 225.9 466.0 225.5Q466.6 225.1 467.4 225.1L467.4 225.1Q467.6 225.1 467.8 225.1Q468.0 225.1 468.1 225.1L468.1 225.1L468.1 226.5Q468.0 226.5 467.8 226.4Q467.6 226.4 467.3 226.4L467.3 226.4Q466.7 226.4 466.2 226.7Q465.7 226.9 465.4 227.4Q465.1 227.9 465.1 228.5L465.1 228.5L465.1 234.0Z M475.0 218.6L476.2 218.6L476.2 237.7L475.0 237.7L475.0 218.6Z M491.8 225.2L490.5 225.2Q490.4 224.4 489.6 223.9Q488.9 223.4 487.9 223.4L487.9 223.4Q487.1 223.4 486.5 223.7Q485.9 223.9 485.6 224.4Q485.3 224.8 485.3 225.4L485.3 225.4Q485.3 225.8 485.5 226.2Q485.7 226.5 486.1 226.7Q486.4 226.9 486.8 227.1Q487.2 227.2 487.5 227.3L487.5 227.3L488.7 227.6Q489.2 227.7 489.7 227.9Q490.3 228.2 490.8 228.5Q491.3 228.9 491.7 229.4Q492.0 230.0 492.0 230.8L492.0 230.8Q492.0 231.8 491.5 232.5Q491.0 233.3 490.1 233.7Q489.1 234.2 487.8 234.2L487.8 234.2Q486.5 234.2 485.6 233.8Q484.7 233.4 484.2 232.7Q483.7 231.9 483.6 231.0L483.6 231.0L485.1 231.0Q485.1 231.6 485.5 232.1Q485.9 232.5 486.5 232.7Q487.1 232.9 487.8 232.9L487.8 232.9Q488.6 232.9 489.2 232.6Q489.9 232.4 490.3 231.9Q490.6 231.4 490.6 230.8L490.6 230.8Q490.6 230.2 490.3 229.9Q490.0 229.5 489.5 229.3Q488.9 229.0 488.3 228.9L488.3 228.9L486.9 228.5Q485.5 228.1 484.7 227.3Q483.9 226.6 483.9 225.4L483.9 225.4Q483.9 224.5 484.5 223.7Q485.0 223.0 485.9 222.6Q486.8 222.2 487.9 222.2L487.9 222.2Q489.0 222.2 489.9 222.6Q490.8 223.0 491.3 223.7Q491.8 224.4 491.8 225.2L491.8 225.2ZM495.5 228.7L495.5 228.7L495.5 234.0L494.1 234.0L494.1 222.3L495.5 222.3L495.5 226.6L495.6 226.6Q495.9 225.9 496.5 225.5Q497.1 225.1 498.2 225.1L498.2 225.1Q499.1 225.1 499.7 225.5Q500.4 225.8 500.8 226.6Q501.1 227.3 501.1 228.4L501.1 228.4L501.1 234.0L499.8 234.0L499.8 228.5Q499.8 227.5 499.3 226.9Q498.7 226.3 497.8 226.3L497.8 226.3Q497.1 226.3 496.6 226.6Q496.1 226.9 495.8 227.4Q495.5 228.0 495.5 228.7ZM509.1 230.4L509.1 230.4L509.1 225.2L510.4 225.2L510.4 234.0L509.1 234.0L509.1 232.5L509 232.5Q508.7 233.2 508.0 233.6Q507.4 234.1 506.4 234.1L506.4 234.1Q505.6 234.1 505.0 233.7Q504.3 233.4 504.0 232.6Q503.6 231.9 503.6 230.8L503.6 230.8L503.6 225.2L504.9 225.2L504.9 230.7Q504.9 231.7 505.5 232.2Q506.0 232.8 506.8 232.8L506.8 232.8Q507.3 232.8 507.9 232.5Q508.4 232.3 508.7 231.8Q509.1 231.2 509.1 230.4ZM512.2 225.2L516.7 225.2L516.7 226.4L512.2 226.4L512.2 225.2ZM513.5 231.8L513.5 223.2L514.8 223.2L514.8 231.5Q514.8 232.0 515.0 232.3Q515.2 232.6 515.4 232.7Q515.7 232.8 516.0 232.8L516.0 232.8Q516.2 232.8 516.3 232.8Q516.5 232.7 516.6 232.7L516.6 232.7L516.8 233.9Q516.7 234.0 516.5 234.0Q516.2 234.1 515.8 234.1L515.8 234.1Q515.3 234.1 514.7 233.8Q514.2 233.6 513.8 233.1Q513.5 232.6 513.5 231.8L513.5 231.8ZM518.0 225.2L522.5 225.2L522.5 226.4L518.0 226.4L518.0 225.2ZM519.3 231.8L519.3 223.2L520.6 223.2L520.6 231.5Q520.6 232.0 520.8 232.3Q521.0 232.6 521.2 232.7Q521.5 232.8 521.8 232.8L521.8 232.8Q522.0 232.8 522.2 232.8Q522.3 232.7 522.4 232.7L522.4 232.7L522.7 233.9Q522.5 234.0 522.3 234.0Q522.0 234.1 521.7 234.1L521.7 234.1Q521.1 234.1 520.5 233.8Q520.0 233.6 519.7 233.1Q519.3 232.6 519.3 231.8L519.3 231.8ZM528.1 234.2L528.1 234.2Q526.8 234.2 525.9 233.6Q525.0 233.0 524.5 232.0Q524.0 231.0 524.0 229.7L524.0 229.7Q524.0 228.3 524.5 227.3Q525.0 226.3 525.9 225.7Q526.8 225.1 528.0 225.1L528.0 225.1Q528.6 225.1 529.3 225.4Q530.0 225.6 530.5 226.1Q531.1 226.6 531.4 227.4Q531.7 228.3 531.7 229.5L531.7 229.5L531.7 230.1L525.0 230.1L525.0 228.9L530.3 228.9Q530.3 228.2 530.0 227.6Q529.8 227.0 529.2 226.7Q528.7 226.3 528.0 226.3L528.0 226.3Q527.2 226.3 526.6 226.7Q526.0 227.1 525.7 227.8Q525.4 228.4 525.4 229.1L525.4 229.1L525.4 229.9Q525.4 230.9 525.7 231.6Q526.1 232.2 526.7 232.6Q527.3 233.0 528.1 233.0L528.1 233.0Q528.6 233.0 529.0 232.8Q529.5 232.7 529.8 232.3Q530.1 232.0 530.3 231.6L530.3 231.6L531.6 232.0Q531.4 232.6 530.9 233.1Q530.4 233.6 529.7 233.9Q529.0 234.2 528.1 234.2ZM535.1 234.0L533.8 234.0L533.8 225.2L535.0 225.2L535.0 226.6L535.1 226.6Q535.4 225.9 536.0 225.5Q536.6 225.1 537.4 225.1L537.4 225.1Q537.6 225.1 537.8 225.1Q538.0 225.1 538.1 225.1L538.1 225.1L538.1 226.5Q538.0 226.5 537.8 226.4Q537.6 226.4 537.3 226.4L537.3 226.4Q536.7 226.4 536.2 226.7Q535.7 226.9 535.4 227.4Q535.1 227.9 535.1 228.5L535.1 228.5L535.1 234.0ZM541.2 234.0L539.9 234.0L539.9 222.3L541.2 222.3L541.2 226.6L541.3 226.6Q541.5 226.4 541.8 226.1Q542.0 225.7 542.5 225.4Q543.0 225.1 543.9 225.1L543.9 225.1Q545.0 225.1 545.8 225.7Q546.6 226.2 547.1 227.2Q547.6 228.3 547.6 229.6L547.6 229.6Q547.6 231.0 547.1 232.0Q546.6 233.0 545.8 233.6Q545.0 234.2 543.9 234.2L543.9 234.2Q543.0 234.2 542.5 233.9Q542.0 233.6 541.8 233.2Q541.5 232.9 541.3 232.6L541.3 232.6L541.2 232.6L541.2 234.0ZM541.2 229.6L541.2 229.6Q541.2 230.6 541.5 231.4Q541.8 232.1 542.3 232.5Q542.9 233.0 543.7 233.0L543.7 233.0Q544.5 233.0 545.1 232.5Q545.7 232.1 546.0 231.3Q546.3 230.5 546.3 229.6L546.3 229.6Q546.3 228.7 546.0 228.0Q545.7 227.2 545.1 226.8Q544.6 226.3 543.7 226.3L543.7 226.3Q542.9 226.3 542.3 226.8Q541.8 227.2 541.5 227.9Q541.2 228.6 541.2 229.6ZM555.1 230.4L555.1 230.4L555.1 225.2L556.5 225.2L556.5 234.0L555.1 234.0L555.1 232.5L555.0 232.5Q554.7 233.2 554.1 233.6Q553.4 234.1 552.5 234.1L552.5 234.1Q551.6 234.1 551.0 233.7Q550.4 233.4 550.0 232.6Q549.6 231.9 549.6 230.8L549.6 230.8L549.6 225.2L551.0 225.2L551.0 230.7Q551.0 231.7 551.5 232.2Q552.1 232.8 552.9 232.8L552.9 232.8Q553.4 232.8 553.9 232.5Q554.4 232.3 554.8 231.8Q555.1 231.2 555.1 230.4ZM562.5 237.4L562.5 237.4Q561.5 237.4 560.8 237.2Q560.1 236.9 559.6 236.5Q559.2 236.1 558.9 235.7L558.9 235.7L560.0 234.9Q560.1 235.2 560.4 235.5Q560.7 235.8 561.2 236.0Q561.7 236.2 562.5 236.2L562.5 236.2Q563.5 236.2 564.2 235.7Q564.9 235.2 564.9 234.1L564.9 234.1L564.9 232.4L564.8 232.4Q564.6 232.6 564.4 233.0Q564.1 233.3 563.6 233.6Q563.1 233.8 562.2 233.8L562.2 233.8Q561.2 233.8 560.3 233.3Q559.5 232.8 559.0 231.9Q558.5 230.9 558.5 229.6L558.5 229.6Q558.5 228.2 559.0 227.2Q559.5 226.2 560.3 225.7Q561.1 225.1 562.3 225.1L562.3 225.1Q563.1 225.1 563.6 225.4Q564.1 225.7 564.4 226.1Q564.6 226.4 564.8 226.6L564.8 226.6L564.9 226.6L564.9 225.2L566.2 225.2L566.2 234.2Q566.2 235.4 565.7 236.1Q565.2 236.8 564.4 237.1Q563.5 237.4 562.5 237.4ZM562.4 232.6L562.4 232.6Q563.2 232.6 563.8 232.3Q564.3 231.9 564.6 231.2Q564.9 230.5 564.9 229.5L564.9 229.5Q564.9 228.6 564.6 227.9Q564.3 227.2 563.8 226.7Q563.2 226.3 562.4 226.3L562.4 226.3Q561.6 226.3 561.0 226.8Q560.4 227.2 560.1 227.9Q559.9 228.7 559.9 229.5L559.9 229.5Q559.9 230.5 560.2 231.1Q560.4 231.8 561.0 232.2Q561.6 232.6 562.4 232.6Z M574 218.6L575.1 218.6L575.1 237.7L574 237.7L574 218.6Z M587.3 234.0L583.1 234.0L583.1 222.3L587.2 222.3Q588.4 222.3 589.2 222.8Q590.0 223.2 590.3 223.9Q590.7 224.6 590.7 225.4L590.7 225.4Q590.7 226.2 590.5 226.7Q590.2 227.2 589.8 227.4Q589.3 227.7 588.8 227.9L588.8 227.9L588.8 228.0Q589.4 228.0 589.9 228.4Q590.5 228.7 590.8 229.3Q591.2 230.0 591.2 230.9L591.2 230.9Q591.2 231.8 590.8 232.5Q590.4 233.2 589.5 233.6Q588.7 234.0 587.3 234.0L587.3 234.0ZM584.5 228.7L584.5 232.7L587.3 232.7Q588.7 232.7 589.3 232.2Q589.8 231.7 589.8 230.9L589.8 230.9Q589.8 230.3 589.5 229.8Q589.2 229.3 588.7 229.0Q588.1 228.7 587.4 228.7L587.4 228.7L584.5 228.7ZM584.5 223.6L584.5 227.5L587.1 227.5Q587.8 227.5 588.3 227.2Q588.8 227.0 589.1 226.5Q589.4 226.0 589.4 225.4L589.4 225.4Q589.4 224.7 588.9 224.1Q588.3 223.6 587.2 223.6L587.2 223.6L584.5 223.6ZM594.7 234.0L593.3 234.0L593.3 225.2L594.7 225.2L594.7 234.0ZM594 223.8L594 223.8Q593.6 223.8 593.3 223.5Q593.0 223.3 593.0 222.9L593.0 222.9Q593.0 222.5 593.3 222.2Q593.6 222.0 594 222.0L594 222.0Q594.4 222.0 594.7 222.2Q595.0 222.5 595.0 222.9L595.0 222.9Q595.0 223.3 594.7 223.5Q594.4 223.8 594 223.8ZM598.6 234.0L597.3 234.0L597.3 222.3L598.6 222.3L598.6 226.6L598.8 226.6Q598.9 226.4 599.2 226.1Q599.4 225.7 599.9 225.4Q600.4 225.1 601.3 225.1L601.3 225.1Q602.4 225.1 603.2 225.7Q604.1 226.2 604.5 227.2Q605 228.3 605 229.6L605 229.6Q605 231.0 604.5 232.0Q604.1 233.0 603.2 233.6Q602.4 234.2 601.3 234.2L601.3 234.2Q600.5 234.2 599.9 233.9Q599.4 233.6 599.2 233.2Q598.9 232.9 598.8 232.6L598.8 232.6L598.6 232.6L598.6 234.0ZM598.6 229.6L598.6 229.6Q598.6 230.6 598.9 231.4Q599.2 232.1 599.8 232.5Q600.3 233.0 601.1 233.0L601.1 233.0Q602.0 233.0 602.5 232.5Q603.1 232.1 603.4 231.3Q603.7 230.5 603.7 229.6L603.7 229.6Q603.7 228.7 603.4 228.0Q603.1 227.2 602.5 226.8Q602.0 226.3 601.1 226.3L601.1 226.3Q600.3 226.3 599.7 226.8Q599.2 227.2 598.9 227.9Q598.6 228.6 598.6 229.6ZM607.0 222.3L608.4 222.3L608.4 234.0L607.0 234.0L607.0 222.3ZM612.2 234.0L610.8 234.0L610.8 225.2L612.2 225.2L612.2 234.0ZM611.5 223.8L611.5 223.8Q611.1 223.8 610.8 223.5Q610.6 223.3 610.6 222.9L610.6 222.9Q610.6 222.5 610.8 222.2Q611.1 222.0 611.5 222.0L611.5 222.0Q611.9 222.0 612.2 222.2Q612.5 222.5 612.5 222.9L612.5 222.9Q612.5 223.3 612.2 223.5Q611.9 223.8 611.5 223.8ZM618.2 234.2L618.2 234.2Q617.0 234.2 616.1 233.6Q615.2 233.0 614.7 232.0Q614.2 231.0 614.2 229.7L614.2 229.7Q614.2 228.3 614.7 227.3Q615.2 226.3 616.1 225.7Q617.0 225.1 618.2 225.1L618.2 225.1Q619.4 225.1 620.3 225.7Q621.1 226.3 621.6 227.3Q622.1 228.3 622.1 229.7L622.1 229.7Q622.1 231.0 621.6 232.0Q621.1 233.0 620.3 233.6Q619.4 234.2 618.2 234.2ZM618.2 233.0L618.2 233.0Q619.1 233.0 619.7 232.5Q620.2 232.0 620.5 231.3Q620.8 230.5 620.8 229.7L620.8 229.7Q620.8 228.8 620.5 228.0Q620.2 227.3 619.7 226.8Q619.1 226.3 618.2 226.3L618.2 226.3Q617.3 226.3 616.7 226.8Q616.1 227.3 615.8 228.0Q615.6 228.8 615.6 229.7L615.6 229.7Q615.6 230.5 615.8 231.3Q616.1 232.0 616.7 232.5Q617.3 233.0 618.2 233.0ZM625.5 237.2L624.2 237.2L624.2 225.2L625.5 225.2L625.5 226.6L625.6 226.6Q625.8 226.4 626.0 226.1Q626.3 225.7 626.8 225.4Q627.3 225.1 628.2 225.1L628.2 225.1Q629.3 225.1 630.1 225.7Q630.9 226.2 631.4 227.2Q631.9 228.3 631.9 229.6L631.9 229.6Q631.9 231.0 631.4 232.0Q630.9 233.0 630.1 233.6Q629.3 234.2 628.2 234.2L628.2 234.2Q627.3 234.2 626.8 233.9Q626.3 233.6 626.1 233.2Q625.8 232.9 625.6 232.6L625.6 232.6L625.5 232.6L625.5 237.2ZM625.5 229.6L625.5 229.6Q625.5 230.6 625.8 231.4Q626.1 232.1 626.6 232.5Q627.2 233.0 628.0 233.0L628.0 233.0Q628.8 233.0 629.4 232.5Q630.0 232.1 630.3 231.3Q630.5 230.5 630.5 229.6L630.5 229.6Q630.5 228.7 630.3 228.0Q630.0 227.2 629.4 226.8Q628.9 226.3 628.0 226.3L628.0 226.3Q627.2 226.3 626.6 226.8Q626.1 227.2 625.8 227.9Q625.5 228.6 625.5 229.6ZM635.3 228.7L635.3 228.7L635.3 234.0L633.9 234.0L633.9 222.3L635.3 222.3L635.3 226.6L635.4 226.6Q635.7 225.9 636.3 225.5Q636.9 225.1 638.0 225.1L638.0 225.1Q638.8 225.1 639.5 225.5Q640.2 225.8 640.6 226.6Q640.9 227.3 640.9 228.4L640.9 228.4L640.9 234.0L639.6 234.0L639.6 228.5Q639.6 227.5 639.1 226.9Q638.5 226.3 637.6 226.3L637.6 226.3Q636.9 226.3 636.4 226.6Q635.9 226.9 635.6 227.4Q635.3 228.0 635.3 228.7ZM644.7 234.0L643.4 234.0L643.4 225.2L644.7 225.2L644.7 234.0ZM644.1 223.8L644.1 223.8Q643.7 223.8 643.4 223.5Q643.1 223.3 643.1 222.9L643.1 222.9Q643.1 222.5 643.4 222.2Q643.7 222.0 644.1 222.0L644.1 222.0Q644.5 222.0 644.7 222.2Q645.0 222.5 645.0 222.9L645.0 222.9Q645.0 223.3 644.7 223.5Q644.5 223.8 644.1 223.8ZM647.2 222.3L648.5 222.3L648.5 234.0L647.2 234.0L647.2 222.3ZM654.6 234.2L654.6 234.2Q653.4 234.2 652.5 233.6Q651.6 233.0 651.1 232.0Q650.6 231.0 650.6 229.7L650.6 229.7Q650.6 228.3 651.1 227.3Q651.6 226.3 652.4 225.7Q653.3 225.1 654.5 225.1L654.5 225.1Q655.2 225.1 655.8 225.4Q656.5 225.6 657.1 226.1Q657.6 226.6 657.9 227.4Q658.2 228.3 658.2 229.5L658.2 229.5L658.2 230.1L651.5 230.1L651.5 228.9L656.9 228.9Q656.9 228.2 656.6 227.6Q656.3 227.0 655.8 226.7Q655.2 226.3 654.5 226.3L654.5 226.3Q653.7 226.3 653.1 226.7Q652.5 227.1 652.2 227.8Q651.9 228.4 651.9 229.1L651.9 229.1L651.9 229.9Q651.9 230.9 652.3 231.6Q652.6 232.2 653.2 232.6Q653.8 233.0 654.6 233.0L654.6 233.0Q655.2 233.0 655.6 232.8Q656.0 232.7 656.3 232.3Q656.6 232.0 656.8 231.6L656.8 231.6L658.1 232.0Q657.9 232.6 657.4 233.1Q656.9 233.6 656.2 233.9Q655.5 234.2 654.6 234.2Z "/></svg>